<svg width="25" height="24" viewBox="0 0 25 24" fill="none" xmlns="http://www.w3.org/2000/svg">
<path d="M22.25 7.5H2.75C2.55109 7.5 2.36032 7.57902 2.21967 7.71967C2.07902 7.86032 2 8.05109 2 8.25V15.75C2 15.9489 2.07902 16.1397 2.21967 16.2803C2.36032 16.421 2.55109 16.5 2.75 16.5H22.25C22.4489 16.5 22.6397 16.421 22.7803 16.2803C22.921 16.1397 23 15.9489 23 15.75V8.25C23 8.05109 22.921 7.86032 22.7803 7.71967C22.6397 7.57902 22.4489 7.5 22.25 7.5ZM21.5 15H3.5V9H6.5V12H8V9H11.75V12H13.25V9H17V12H18.5V9H21.5V15Z" fill="black"/>
</svg>
